<?xml version="1.0" standalone="no"?>
<!DOCTYPE svg PUBLIC "-//W3C//DTD SVG 20010904//EN"
 "http://www.w3.org/TR/2001/REC-SVG-20010904/DTD/svg10.dtd">
<svg version="1.0" xmlns="http://www.w3.org/2000/svg"
 width="1248.000000pt" height="1248.000000pt" viewBox="0 0 1248.000000 1248.000000"
 preserveAspectRatio="xMidYMid meet">
<metadata>
Created by potrace 1.14, written by Peter Selinger 2001-2017
</metadata>
<g transform="translate(0.000000,1248.000000) scale(0.100000,-0.100000)"
fill="#000000" stroke="none">
<path d="M6028 11115 c-2 -2 -42 -6 -88 -9 -47 -3 -94 -8 -105 -10 -11 -2 -42
-7 -69 -10 -27 -4 -85 -13 -130 -21 -75 -14 -96 -18 -143 -29 -50 -12 -120
-28 -137 -31 -10 -3 -24 -9 -32 -16 -8 -6 -14 -9 -14 -6 0 6 -134 -38 -220
-73 -88 -35 -105 -42 -109 -40 -2 1 -7 -2 -10 -7 -3 -5 -40 -26 -81 -47 -60
-31 -177 -104 -288 -181 -24 -17 -83 -68 -130 -112 -25 -24 -49 -43 -53 -43
-5 0 -9 -4 -9 -9 0 -5 -17 -27 -38 -48 -20 -21 -64 -72 -97 -113 -33 -41 -63
-76 -67 -78 -5 -2 -8 -10 -8 -17 0 -8 -6 -20 -13 -27 -39 -41 -166 -280 -177
-333 -1 -5 -5 -14 -10 -20 -4 -5 -15 -35 -25 -65 -10 -30 -22 -61 -28 -67 -5
-7 -7 -13 -3 -13 3 0 0 -16 -8 -35 -8 -19 -13 -35 -11 -35 3 0 0 -11 -5 -25
-5 -14 -12 -36 -15 -48 -2 -12 -9 -41 -15 -65 -5 -23 -13 -59 -16 -80 -3 -20
-7 -44 -9 -52 -4 -16 -10 -58 -22 -155 -9 -71 -9 -1933 -1 -2020 6 -60 15
-118 24 -165 2 -14 6 -36 9 -50 3 -14 8 -38 12 -55 3 -16 7 -37 8 -45 1 -8 8
-35 15 -60 6 -25 11 -45 11 -45 -1 0 8 -27 19 -60 11 -33 21 -62 21 -65 1 -3
7 -20 15 -39 8 -18 14 -39 14 -46 0 -6 3 -15 7 -19 5 -4 8 -11 8 -14 0 -10
106 -226 114 -232 3 -3 12 -16 19 -30 13 -27 34 -62 42 -70 3 -3 21 -28 40
-56 82 -119 328 -374 360 -374 5 0 10 -3 12 -7 5 -13 86 -73 97 -73 6 0 11 -4
11 -10 0 -5 7 -10 15 -10 8 0 15 -4 15 -10 0 -5 7 -10 15 -10 8 0 15 -4 15 -8
0 -5 16 -14 35 -22 19 -8 35 -17 35 -22 0 -4 5 -8 10 -8 6 0 27 -11 48 -24 20
-12 42 -24 47 -26 6 -1 38 -15 72 -31 34 -16 64 -29 66 -29 3 0 22 -8 43 -17
22 -9 41 -17 44 -18 3 0 48 -15 100 -33 93 -31 266 -77 325 -86 17 -2 30 -5
30 -6 0 -1 14 -3 30 -5 17 -2 44 -6 60 -9 17 -3 50 -8 75 -11 25 -3 63 -7 85
-10 198 -24 700 -25 820 -1 11 2 49 7 85 11 88 9 139 17 250 41 14 3 36 7 50
10 14 2 32 7 40 10 8 3 26 8 40 11 33 7 42 9 60 16 8 3 44 15 80 26 36 11 79
25 95 32 17 7 35 13 40 14 39 9 292 135 350 175 24 16 48 30 53 30 6 0 12 3
14 8 2 4 37 32 78 62 132 97 299 261 369 363 8 12 21 28 27 34 19 20 123 187
123 197 0 5 4 12 9 15 11 6 112 208 112 222 0 5 8 28 18 52 30 68 42 110 48
172 11 109 -34 194 -134 248 -27 15 -107 47 -178 72 -71 25 -133 47 -139 49
-5 2 -12 4 -15 4 -3 1 -36 13 -75 28 -38 14 -113 41 -165 59 -52 18 -147 52
-210 74 -209 76 -257 90 -311 97 -30 3 -55 8 -57 9 -2 2 -18 -3 -37 -10 -18
-8 -35 -11 -39 -8 -3 4 -6 1 -6 -5 0 -7 -6 -12 -13 -12 -29 0 -146 -185 -147
-232 0 -7 -7 -22 -15 -32 -8 -11 -15 -28 -15 -38 0 -10 -4 -18 -10 -18 -5 0
-12 -11 -16 -25 -3 -14 -9 -25 -13 -25 -3 0 -12 -14 -20 -32 -18 -39 -140
-164 -201 -204 -44 -29 -155 -80 -195 -89 -93 -22 -161 -35 -184 -36 -263 -5
-381 1 -466 23 -22 5 -47 12 -56 13 -38 8 -118 38 -169 66 -88 47 -152 105
-209 189 -48 73 -85 165 -98 245 -2 17 -7 37 -10 45 -11 30 -15 119 -17 342 0
144 -5 228 -11 228 -7 0 -7 3 0 8 6 4 10 175 10 477 0 302 -4 473 -10 477 -7
5 -7 8 0 8 6 0 10 56 10 148 -1 81 2 152 5 157 4 6 6 17 5 25 -1 13 7 50 30
157 3 12 10 35 17 50 6 16 12 30 12 33 1 3 16 32 34 66 38 70 124 159 197 205
152 95 434 147 685 124 74 -6 155 -17 163 -22 4 -2 20 -6 35 -9 69 -12 226
-87 263 -126 9 -10 21 -18 28 -18 6 0 11 -3 11 -7 0 -5 22 -32 49 -61 55 -59
103 -136 145 -232 87 -199 113 -235 183 -266 30 -12 57 -15 127 -10 50 3 92 9
95 14 3 4 15 8 27 10 20 3 117 36 337 115 53 19 97 32 97 29 0 -4 4 -2 8 3 4
6 70 32 147 58 352 122 393 140 448 189 84 76 96 176 41 342 -10 28 -30 79
-46 113 -15 34 -28 66 -28 72 0 6 -5 11 -12 11 -6 0 -8 3 -5 6 4 4 -2 19 -13
34 -11 16 -20 31 -20 34 0 25 -181 288 -255 371 -83 94 -189 195 -254 245 -18
14 -38 30 -45 37 -36 33 -212 140 -317 193 -66 33 -120 59 -122 59 -1 0 -15 5
-32 11 -102 40 -189 68 -197 64 -4 -3 -8 0 -8 7 0 7 -2 10 -6 7 -3 -3 -26 1
-52 9 -26 8 -58 17 -72 20 -48 10 -55 11 -55 14 0 1 -9 3 -20 5 -11 1 -31 5
-45 9 -14 3 -43 8 -65 10 -22 3 -51 7 -65 10 -50 11 -66 13 -140 20 -41 4 -88
9 -105 12 -34 5 -582 13 -587 8z"/>
<path d="M1637 4923 c-4 -3 -28 -7 -54 -9 -58 -3 -142 -13 -174 -19 -13 -3
-53 -10 -89 -16 -36 -7 -76 -16 -90 -21 -14 -6 -36 -12 -50 -14 -26 -5 -130
-39 -165 -54 -146 -62 -286 -137 -347 -184 -14 -12 -41 -32 -59 -46 -82 -61
-192 -170 -241 -237 -17 -24 -35 -43 -40 -43 -4 0 -8 -7 -8 -15 0 -8 -4 -15
-10 -15 -5 0 -10 -5 -10 -11 0 -6 -13 -29 -29 -52 -49 -73 -138 -252 -147
-297 0 -3 -4 -14 -8 -25 -21 -55 -34 -91 -35 -97 -1 -5 -1 -9 -2 -10 -5 -16
-17 -66 -33 -138 -30 -134 -40 -238 -40 -455 0 -219 6 -355 16 -355 4 0 6 -8
6 -17 -1 -24 12 -97 32 -184 6 -26 12 -53 13 -60 2 -8 6 -20 10 -26 5 -7 10
-22 13 -33 2 -11 6 -28 8 -38 10 -44 81 -204 127 -285 58 -102 141 -218 204
-282 24 -25 41 -45 38 -45 -2 0 10 -12 29 -27 18 -15 35 -30 38 -33 3 -3 28
-24 55 -45 28 -22 52 -42 55 -45 13 -13 121 -80 129 -80 5 0 14 -7 21 -15 7
-9 15 -13 18 -11 3 3 17 -3 31 -13 52 -35 292 -130 346 -136 6 -1 28 -7 50
-13 59 -17 191 -41 270 -50 91 -9 512 -9 590 1 89 11 127 16 155 22 14 3 41 8
60 11 19 3 44 8 55 11 11 4 25 8 30 9 42 8 181 47 190 52 5 4 16 7 23 8 21 4
176 66 186 76 6 4 17 8 25 8 8 0 22 7 32 16 9 8 24 16 32 18 8 1 25 9 38 17
13 9 31 19 39 22 19 9 80 47 109 69 13 9 21 20 18 25 -3 5 -8 20 -11 34 -2 13
-21 82 -40 153 -20 70 -36 136 -36 145 0 9 -4 21 -8 27 -7 8 -18 47 -37 129
-13 58 -23 94 -29 103 -4 7 -29 -4 -65 -28 -91 -60 -333 -180 -370 -183 -11
-1 -21 -5 -21 -10 0 -4 -6 -7 -12 -6 -7 1 -26 -3 -42 -10 -15 -6 -39 -12 -52
-13 -13 -1 -24 -6 -24 -11 0 -5 -7 -7 -15 -3 -8 3 -15 2 -15 -2 0 -4 -8 -8
-17 -9 -10 0 -57 -7 -104 -16 -48 -9 -117 -19 -155 -22 -83 -8 -290 -8 -323
-1 -13 3 -49 8 -80 12 -31 3 -60 9 -65 11 -4 3 -25 8 -45 10 -20 3 -38 8 -41
12 -3 3 -16 8 -30 9 -14 2 -29 7 -35 11 -5 4 -32 16 -60 26 -134 49 -292 173
-395 310 -78 103 -166 303 -184 420 -4 21 -9 48 -12 60 -3 13 -7 44 -9 71 -2
27 -4 49 -6 49 -4 0 -5 251 -1 258 2 5 6 33 8 64 2 30 5 62 8 71 3 10 8 33 11
52 18 104 98 296 168 402 40 60 170 198 187 198 6 0 8 5 5 10 -3 6 -2 10 3 10
6 0 34 16 63 36 105 72 270 134 399 152 143 19 639 -4 667 -31 13 -13 16 -48
39 -380 2 -39 7 -101 9 -137 6 -74 15 -200 20 -278 2 -30 6 -56 8 -59 7 -6
687 -6 694 1 3 3 5 292 5 643 -1 750 0 693 -9 691 -5 -1 -39 9 -78 21 -188 62
-462 127 -610 146 -75 10 -130 16 -173 19 -23 1 -45 6 -49 9 -3 4 -12 2 -20
-4 -7 -6 -13 -8 -13 -3 0 5 -26 9 -58 9 -31 0 -69 3 -83 6 -14 4 -33 2 -42 -3
-10 -5 -17 -5 -17 -1 0 9 -207 9 -217 0 -3 -4 -13 -2 -23 3 -10 5 -20 7 -23 3z"/>
<path d="M11277 4924 c-4 -4 -69 -8 -144 -10 -76 -1 -160 -5 -188 -8 -75 -7
-140 -16 -166 -22 -13 -3 -31 -6 -39 -6 -24 0 -210 -48 -275 -70 -403 -138
-629 -385 -671 -733 -8 -67 -7 -212 1 -255 4 -19 8 -44 9 -55 6 -38 36 -127
62 -184 65 -137 180 -265 334 -370 49 -34 93 -61 98 -61 6 0 12 -3 14 -7 8
-19 319 -158 444 -198 27 -9 58 -20 69 -25 35 -15 130 -44 138 -42 4 1 7 -3 7
-10 0 -6 3 -9 6 -6 5 6 189 -56 329 -110 56 -21 187 -83 195 -91 3 -4 18 -13
34 -21 51 -26 124 -104 147 -155 52 -119 13 -296 -88 -398 -46 -45 -172 -116
-213 -119 -3 0 -12 -4 -21 -9 -9 -4 -31 -11 -50 -14 -19 -3 -41 -8 -49 -10
-15 -5 -79 -14 -140 -21 -19 -2 -100 -4 -180 -4 -131 -1 -196 2 -285 14 -16 2
-57 7 -90 11 -78 9 -89 16 -91 57 -2 39 -12 159 -20 243 -3 33 -7 78 -9 100
-9 119 -18 211 -21 216 -2 3 -35 5 -74 5 -38 -1 -70 3 -70 7 0 5 -5 5 -12 1
-17 -11 -168 -11 -168 -1 0 5 -6 5 -12 1 -7 -5 -76 -8 -153 -8 l-140 -1 0
-510 0 -509 30 -7 c133 -30 274 -61 295 -64 14 -2 50 -9 80 -15 30 -6 66 -13
80 -15 14 -2 57 -9 95 -15 39 -6 84 -12 100 -14 17 -2 30 -5 30 -6 0 -1 23 -3
50 -5 28 -2 66 -6 85 -9 126 -18 381 -24 570 -12 161 10 196 14 390 52 222 43
470 166 602 297 116 117 206 280 232 422 3 17 9 41 12 55 13 52 11 314 -3 360
-7 25 -16 58 -19 74 -2 16 -9 37 -15 47 -5 11 -7 19 -3 19 4 0 -1 9 -11 20
-10 11 -15 20 -11 20 10 0 -51 113 -75 139 -10 11 -19 24 -19 29 0 5 -10 17
-22 29 -13 11 -35 33 -49 49 -35 39 -121 113 -172 146 -23 15 -46 31 -52 35
-5 5 -35 21 -65 37 -30 16 -63 36 -74 45 -10 9 -20 15 -22 14 -2 -1 -19 4 -39
13 -19 8 -37 14 -40 14 -3 0 -22 10 -42 21 -20 12 -44 23 -53 24 -13 4 -106
40 -165 65 -11 4 -123 45 -250 90 -305 109 -491 199 -577 283 -56 54 -121 147
-102 147 4 0 1 6 -5 14 -13 15 -18 123 -8 171 24 114 118 198 282 251 27 9
116 26 165 31 120 14 439 6 560 -12 19 -3 51 -7 71 -9 69 -7 74 -11 75 -63 2
-63 13 -192 18 -221 3 -13 6 -60 8 -105 2 -45 8 -85 13 -89 6 -5 5 -8 -3 -8
-8 0 -10 -5 -6 -12 4 -6 9 -36 10 -66 2 -30 5 -57 8 -60 7 -6 596 -9 597 -2 6
25 2 1013 -4 1017 -5 3 -36 12 -70 20 -34 8 -69 16 -77 19 -39 10 -254 53
-300 59 -8 1 -31 5 -50 9 -19 3 -53 8 -75 11 -22 3 -58 8 -80 11 -91 12 -278
27 -350 28 -27 0 -53 4 -56 9 -3 4 -8 4 -12 1z"/>
<path d="M4548 4116 c-1 -2 -53 -6 -113 -9 -61 -3 -117 -8 -125 -11 -8 -3 -26
-7 -40 -10 -14 -2 -45 -10 -70 -17 -25 -7 -47 -13 -50 -13 -41 -7 -229 -100
-242 -120 -5 -6 -8 -7 -8 -1 0 7 -3 7 -8 0 -4 -6 -25 -23 -47 -40 -66 -48
-145 -126 -188 -185 -22 -30 -43 -57 -47 -60 -7 -6 -55 -88 -82 -140 -33 -62
-89 -211 -83 -220 3 -5 1 -11 -4 -14 -18 -11 -54 -192 -67 -341 -15 -152 -4
-448 20 -555 3 -14 9 -41 12 -60 6 -35 9 -48 40 -150 38 -128 138 -326 203
-401 6 -8 21 -25 32 -39 54 -65 69 -79 144 -138 44 -34 85 -66 91 -71 12 -10
186 -95 194 -96 3 0 11 -4 18 -8 6 -5 12 -6 12 -2 0 3 16 -1 35 -9 19 -8 35
-13 35 -11 0 2 15 -1 33 -6 62 -19 93 -22 267 -25 188 -4 302 11 420 57 30 11
61 21 68 22 6 0 12 4 12 8 0 4 11 9 23 13 33 8 162 95 222 149 l50 46 3 -130
c2 -93 6 -129 15 -130 7 0 243 -2 524 -2 l513 -2 0 83 c1 106 1 315 0 391 l0
58 -166 -1 c-139 -1 -167 1 -173 14 -4 8 -6 491 -6 1073 l1 1057 -353 0 -353
0 0 -137 0 -136 -63 59 c-68 64 -87 79 -133 107 -45 27 -176 88 -199 93 -5 1
-14 3 -20 4 -5 2 -14 4 -20 5 -5 2 -13 4 -17 5 -5 1 -12 4 -18 5 -5 1 -11 3
-12 5 -8 6 -91 17 -193 26 -33 2 -65 6 -72 9 -6 2 -13 2 -15 1z m170 -637 c9
5 24 7 32 6 8 -1 40 -5 70 -9 59 -7 147 -32 168 -49 6 -5 12 -6 12 -3 0 12
121 -75 157 -113 50 -51 109 -143 133 -207 19 -51 20 -77 20 -385 0 -327 0
-330 -25 -390 -92 -227 -297 -363 -545 -362 -93 0 -174 13 -235 39 -16 7 -33
13 -37 13 -5 1 -33 17 -63 36 -127 81 -222 214 -272 379 -42 139 -50 359 -18
511 17 84 62 208 77 213 4 2 6 7 3 12 -3 4 2 13 10 20 8 7 15 16 15 21 0 21
110 134 166 170 68 45 165 83 207 82 9 0 17 3 17 6 0 4 17 8 37 9 21 2 40 5
42 8 3 3 7 1 9 -5 2 -7 10 -8 20 -2z"/>
<path d="M7601 4110 c-30 -3 -67 -5 -83 -4 -15 1 -28 -1 -28 -4 0 -4 -10 -8
-22 -8 -23 -1 -54 -7 -113 -19 -75 -16 -305 -117 -325 -144 -3 -3 -23 -18 -45
-33 -38 -24 -165 -142 -165 -152 0 -3 -16 -22 -35 -43 -19 -21 -35 -44 -35
-50 0 -7 -4 -13 -10 -13 -5 0 -10 -6 -10 -13 0 -7 -8 -22 -18 -33 -28 -30
-125 -244 -137 -304 -2 -8 -12 -51 -23 -95 -20 -76 -25 -104 -40 -220 -9 -68
-9 -372 0 -466 18 -193 107 -496 170 -578 10 -13 18 -28 18 -33 0 -9 53 -91
75 -115 5 -6 21 -26 35 -45 105 -140 313 -277 504 -333 128 -36 183 -43 351
-43 172 0 305 19 400 58 129 52 200 89 242 125 6 5 26 21 44 35 18 14 40 33
49 43 8 10 22 22 31 27 14 8 15 -5 14 -113 -1 -67 0 -126 2 -132 2 -7 182 -9
516 -8 281 0 517 2 522 2 7 1 10 92 9 259 -1 141 -2 260 -3 263 0 3 -77 5
-170 5 l-170 -1 0 1040 c0 572 0 1055 -1 1073 l0 32 -352 -2 -353 -3 0 -127
c0 -71 -3 -128 -7 -128 -4 0 -24 17 -45 38 -45 46 -145 122 -161 122 -5 0 -12
4 -14 8 -4 11 -170 82 -190 82 -8 0 -18 3 -22 7 -3 4 -14 8 -24 10 -54 9 -67
11 -67 13 0 3 -50 8 -145 15 -52 3 -99 7 -105 8 -5 2 -34 0 -64 -3z m242 -633
c18 11 61 10 69 -2 5 -6 8 -5 8 3 0 8 5 10 12 6 7 -4 28 -9 48 -11 154 -15
337 -150 413 -304 20 -41 39 -83 43 -94 12 -34 11 -244 -1 -237 -6 4 -6 1 1
-9 12 -16 12 -416 -1 -464 -4 -16 -22 -57 -39 -90 -104 -200 -307 -316 -541
-309 -113 3 -282 52 -307 88 -4 6 -8 8 -8 4 0 -8 -27 13 -97 75 -70 64 -157
213 -177 307 -32 145 -37 184 -37 290 1 244 70 438 200 568 70 70 96 92 107
92 3 0 18 8 32 19 34 23 143 59 201 66 25 3 47 8 50 11 3 3 7 0 9 -5 2 -6 9
-8 15 -4z"/>
</g>
</svg>
