<?xml version="1.0" encoding="UTF-8"?>
<svg width="156" height="122" xmlns="http://www.w3.org/2000/svg" xmlns:xlink="http://www.w3.org/1999/xlink">
  <title>CaaS</title>
  <g fill="#FFFFFF" class="icon-text-wrapper icon-svg-group iconsvg">
    <g class="iconsvg-imagesvg" transform="translate(47.8699951171875,0)">
      <g>
        <rect fill="#1A1A1A" fill-opacity="0" stroke-width="2" x="0" y="0" width="60" height="73.46548958626684"
              class="image-rect"></rect>
        <svg x="0" y="0" width="60" height="73.46548958626684" class="image-svg-svg primary" style="overflow: visible;">
          <svg xmlns="http://www.w3.org/2000/svg" viewBox="0 0 53.780601501464844 65.8499984741211"><title>c30</title>
            <g>
              <g data-name="Layer 1">
                <path
                  d="M36.67 21.36c1 2.76 2 3.2 4.81 2.4L51 20.38c2.67-.89 3.29-2.23 2.4-4.81A23.23 23.23 0 0 0 48 7.13l-11.47 14c.08.1.11.16.14.23z"
                  fill="#d65fc2"></path>
                <path d="M27.41 15.58c4.9 0 7.55 1.73 9.16 5.59L48 7.13C43.39 2.51 36.56 0 27.41 0h-.52v15.59z"
                      fill="#e94c9b"></path>
                <path
                  d="M27.41 50.29h-.52v15.56h.52c9.11 0 15.92-2.49 20.58-7.08l-11.44-14c-1.46 3.64-4.28 5.52-9.14 5.52z"
                  fill="#ff9845"></path>
                <path d="M17.9 44L6.26 58.27c4.57 4.73 11.54 7.47 20.63 7.58V50.27c-5.43-.12-8.18-2.17-8.99-6.27z"
                      fill="#ff7449"></path>
                <path
                  d="M53.4 50.29c.89-2.58.27-3.92-2.4-4.81l-9.52-3.38c-2.67-1-3.74-.36-4.81 2.4 0 .1-.08.18-.12.28L48 58.79a23.2 23.2 0 0 0 5.4-8.5z"
                  fill="#ffb033"></path>
                <path d="M26.89 15.59V0C17.77.12 10.78 2.84 6.21 7.64l11.67 14.29c.79-4.13 3.54-6.21 9.01-6.34z"
                      fill="#f24671"></path>
                <path d="M17.62 41v-8.1H0v8C0 48.13 2.18 54 6.26 58.27L17.9 44a15.26 15.26 0 0 1-.28-3z"
                      fill="#ff5a54"></path>
                <path d="M17.62 24.83a15.42 15.42 0 0 1 .26-2.9L6.21 7.64C2.16 11.9 0 17.76 0 24.92v8h17.62z"
                      fill="#fd576b"></path>
              </g>
            </g>
          </svg>
        </svg></g>
    </g>
    <g transform="translate(0,77.46549224853516)">
      <g data-gra="path-name" fill-rule="" class="tp-name iconsvg-namesvg">
        <g transform="scale(1)">
          <g>
            <path
              d="M2.21-21.91C2.21-7.08 11.63 0.52 24.83 0.52 31.14 0.52 36.98-1.3 40.95-4.09L38.87-11.83C35.75-9.49 30.88-7.61 25.68-7.61 17.16-7.61 11.63-12.94 11.63-21.91 11.63-30.68 17.16-36.01 24.25-36.01 26.59-36.01 28.8-35.88 30.81-35.55L31.59-24.77 40.37-24.77 40.37-41.41C35.62-43.03 31.14-44.07 24.44-44.07 11.7-44.07 2.21-36.53 2.21-21.91ZM44.27-16.84C44.27-5.66 50.38 0.52 58.76 0.52 62.92 0.52 66.17-0.78 68.58-3.38L68.58 0 81.71 0 81.71-6.63 77.42-6.63 77.42-33.41 68.58-33.41 68.58-29.96C66.3-32.63 62.99-33.93 58.76-33.93 50.38-33.93 44.27-27.76 44.27-16.84ZM53.37-16.64C53.37-22.62 56.75-26.07 61.43-26.07 64.81-26.07 67.54-24.05 68.58-20.67L68.58-12.42C67.6-9.1 64.81-7.08 61.43-7.08 56.75-7.08 53.37-10.66 53.37-16.64ZM83.46-16.84C83.46-5.66 89.57 0.52 97.96 0.52 102.12 0.52 105.37-0.78 107.77-3.38L107.77 0 120.9 0 120.9-6.63 116.61-6.63 116.61-33.41 107.77-33.41 107.77-29.96C105.5-32.63 102.18-33.93 97.96-33.93 89.57-33.93 83.46-27.76 83.46-16.84ZM92.56-16.64C92.56-22.62 95.94-26.07 100.62-26.07 104-26.07 106.73-24.05 107.77-20.67L107.77-12.42C106.8-9.1 104-7.08 100.62-7.08 95.94-7.08 92.56-10.66 92.56-16.64ZM142.35-44.01C134.55-44.01 124.54-41.6 124.54-31.92 124.54-17.36 148.53-19.57 148.53-12.35 148.53-7.93 144.69-6.37 138.78-6.37 136.89-6.37 135.01-6.57 133.19-6.89L132.54-14.5 124.61-14.5 124.61-1.76C129.22-0.58 135.2 0.39 139.36 0.39 152.1 0.46 157.95-4.42 157.95-12.29 157.95-27.17 134.03-24.44 134.03-32.83 134.03-36.4 137.48-37.51 142.29-37.51 144.37-37.51 146.45-37.31 148.46-36.98L149.11-29.25 156.65-29.25 156.65-41.99C152.82-43.03 147.49-44.01 142.35-44.01Z"
              transform="translate(-2.2100000381469727, 44.06999969482422)"></path>
          </g></g>
      </g></g>
  </g>
</svg>
